<svg xmlns="http://www.w3.org/2000/svg" viewBox="0 0 600 700" preserveAspectRatio="xMidYMid slice">
  <defs>
    <linearGradient id="bg" x1="0%" y1="0%" x2="100%" y2="100%">
      <stop offset="0%" stop-color="#F8E4D0"/>
      <stop offset="60%" stop-color="#E8C5A8"/>
      <stop offset="100%" stop-color="#8B6F47"/>
    </linearGradient>
    <radialGradient id="light" cx="40%" cy="35%" r="60%">
      <stop offset="0%" stop-color="rgba(255,255,255,0.4)"/>
      <stop offset="100%" stop-color="rgba(255,255,255,0)"/>
    </radialGradient>
  </defs>
  <rect width="600" height="700" fill="url(#bg)"/>
  <rect width="600" height="700" fill="url(#light)"/>
  <g transform="translate(300, 250)" opacity="0.85">
    <circle cx="0" cy="0" r="80" fill="#2C2218"/>
    <ellipse cx="0" cy="-90" rx="55" ry="50" fill="#1A1410"/>
    <path d="M -45 -10 Q 0 30 45 -10 Q 50 60 0 70 Q -50 60 -45 -10 Z" fill="#F4D5BC"/>
    <circle cx="-18" cy="-5" r="3" fill="#2C2218"/>
    <circle cx="18" cy="-5" r="3" fill="#2C2218"/>
    <path d="M -10 20 Q 0 25 10 20" stroke="#8B4513" stroke-width="2" fill="none"/>
  </g>
  <g transform="translate(300, 420)">
    <path d="M -150 0 L 150 0 L 130 280 L -130 280 Z" fill="#1A1410"/>
    <path d="M -40 5 L 40 5 L 40 60 L -40 60 Z" fill="#F4D5BC" opacity="0.4"/>
  </g>
  <text x="300" y="620" text-anchor="middle" font-family="sans-serif" font-size="18" fill="rgba(255,255,255,0.6)" font-weight="600">간다GO 출장마사지</text>
  <text x="300" y="645" text-anchor="middle" font-family="sans-serif" font-size="13" fill="rgba(255,255,255,0.45)">전국 어디든 안내 가능</text>
</svg>
